<svg xmlns="http://www.w3.org/2000/svg" width="236" height="56" viewBox="0 0 236 56" role="img" aria-labelledby="logo-title logo-desc">
  <title id="logo-title">灵动智联 LingDong Nexus</title>
  <desc id="logo-desc">由多彩流线与跃迁节点构成的灵动智联企业数据与智能能力协同平台标志。</desc>
  <defs>
    <linearGradient id="lingdong-nexus-bg" x1="3" y1="3" x2="39" y2="39" gradientUnits="userSpaceOnUse"><stop stop-color="#172554"/><stop offset=".55" stop-color="#312E81"/><stop offset="1" stop-color="#4C1D95"/></linearGradient>
    <linearGradient id="lingdong-nexus-flow" x1="7" y1="33" x2="38" y2="10" gradientUnits="userSpaceOnUse"><stop stop-color="#22D3EE"/><stop offset=".34" stop-color="#3B82F6"/><stop offset=".67" stop-color="#A855F7"/><stop offset="1" stop-color="#F472B6"/></linearGradient>
    <linearGradient id="lingdong-nexus-spark" x1="12" y1="32" x2="36" y2="36" gradientUnits="userSpaceOnUse"><stop stop-color="#FDE047"/><stop offset=".5" stop-color="#FB923C"/><stop offset="1" stop-color="#FB7185"/></linearGradient>
  </defs>
  <g transform="translate(1 7)">
    <rect width="42" height="42" rx="13" fill="url(#lingdong-nexus-bg)"/>
    <path d="M8.5 29.8C13.8 28.5 15.5 19.6 21.6 16.1C26.5 13.3 31.3 14.4 36 18" fill="none" stroke="url(#lingdong-nexus-flow)" stroke-width="4.2" stroke-linecap="round"/>
    <path d="M11.5 34C17.4 33.4 20.8 26.7 26.3 27.2C31.1 27.6 32.6 33 37.3 33.8" fill="none" stroke="url(#lingdong-nexus-spark)" stroke-width="3.2" stroke-linecap="round"/>
    <circle cx="9" cy="29.8" r="2.1" fill="#22D3EE"/><circle cx="21.6" cy="16.1" r="2" fill="#A855F7"/><circle cx="36.2" cy="18" r="2.2" fill="#F472B6"/><path d="m34.8 14.8 5.4 4.3-6.5 2.3Z" fill="#F472B6"/>
  </g>
  <text x="55" y="28" fill="#111827" font-family="'Microsoft YaHei', 'PingFang SC', sans-serif" font-size="22" font-weight="800" letter-spacing="1">灵动</text>
  <text x="56" y="42" fill="#64748B" font-family="Inter, 'Segoe UI', Arial, sans-serif" font-size="8.5" font-weight="750" letter-spacing="1.35">LINGDONG</text>
  <path d="M127 15v27" stroke="#CBD5E1"/>
  <text x="140" y="28" fill="#2563EB" font-family="'Microsoft YaHei', 'PingFang SC', sans-serif" font-size="15" font-weight="800" letter-spacing="1.5">智联</text>
  <text x="140" y="42" fill="#4F46E5" font-family="Inter, 'Segoe UI', Arial, sans-serif" font-size="8.5" font-weight="800" letter-spacing="1.25">NEXUS</text>
</svg>
